<svg width="700" height="700" viewBox="0 0 700 700" fill="none" xmlns="http://www.w3.org/2000/svg">
<path d="M261.41 216.33C263.766 217.002 266.34 217.674 269.141 218.4L270.148 247.912C270.148 268.689 278.492 288.232 293.722 303.072C308.898 317.799 328.667 325.974 349.609 326.088H349.891C370.723 326.088 390.547 318.026 405.668 303.408C420.957 288.681 429.469 269.135 429.637 248.47L430.699 218.4C433.555 217.674 436.187 217.002 438.594 216.271C450.02 213.135 456.625 209.326 456.625 205.24C456.625 204.736 456.511 204.178 456.289 203.674C456.457 202.721 456.625 201.826 456.625 200.819V198.018C456.625 191.858 451.976 186.819 446.211 186.819H442.515C442.515 150.307 425.042 118.331 399.003 100.354L390.714 153.331C390.042 157.643 386.347 160.612 382.148 160.612C381.757 160.612 381.253 160.612 380.804 160.499C376.101 159.827 372.906 155.401 373.577 150.643L383.714 85.5141C373.523 81.2602 361.597 78.9047 350.003 78.9047C338.409 78.9047 326.483 81.2602 316.233 85.5688L326.428 150.643C327.1 155.401 323.905 159.826 319.202 160.553C318.757 160.612 318.307 160.666 317.858 160.666C313.714 160.666 309.964 157.643 309.292 153.385L301.003 100.408C277.819 116.369 261.577 143.361 258.163 174.666C285.268 194.436 350.003 203.561 350.003 203.561C299.659 200.092 257.491 186.873 257.491 186.873H253.737C247.967 186.873 243.378 191.912 243.378 198.072V200.873C243.378 201.881 243.546 202.775 243.714 203.728C243.546 204.232 243.378 204.795 243.378 205.299C243.378 209.385 249.987 213.193 261.409 216.33L261.41 216.33ZM357.562 230.553C357.562 230.104 357.562 229.658 357.617 229.323C372.179 228.873 385.898 227.362 398.219 225.291C399.285 226.635 399.957 228.483 399.957 230.553V238.561C399.957 242.705 397.324 246.065 394.133 246.065H363.387C360.196 246.065 357.563 242.705 357.563 238.561L357.562 230.553ZM300.05 230.553C300.05 228.483 300.722 226.631 301.785 225.287C314.105 227.303 327.883 228.873 342.387 229.264C342.441 229.655 342.441 230.104 342.441 230.495L342.445 238.561C342.445 242.705 339.812 246.065 336.621 246.065H305.875C302.684 246.065 300.051 242.705 300.051 238.561L300.05 230.553ZM293.667 223.889C292.828 225.905 292.324 228.201 292.324 230.553V238.561C292.324 246.959 298.37 253.791 305.875 253.791H336.617C343.335 253.791 348.937 248.302 350 241.135C351.121 248.303 356.664 253.791 363.383 253.791H394.125C401.628 253.791 407.676 246.959 407.676 238.561L407.683 230.553C407.683 228.201 407.179 225.905 406.34 223.834C409.363 223.276 412.218 222.713 415.019 222.1L414.066 247.971V248.307C413.898 282.018 384.554 310.522 349.836 310.522H349.613C332.812 310.467 316.797 303.858 304.535 291.928C292.324 280.002 285.547 264.377 285.66 247.803V247.689L284.821 222.099C287.676 222.713 290.645 223.33 293.668 223.889L293.667 223.889Z" fill="white"/>
<path d="M333.26 289.35H366.748C368.877 289.35 370.611 287.557 370.611 285.487C370.611 283.412 368.873 281.565 366.744 281.565H333.26C331.077 281.565 329.338 283.358 329.338 285.428C329.338 287.502 331.131 289.35 333.26 289.35H333.26Z" fill="white"/>
<path d="M280.17 393.18C285.1 405.164 287.057 415.973 287.897 423.532H412.107C412.947 415.973 414.849 405.165 419.833 393.18C425.658 378.789 434.392 366.356 445.649 355.883L415.188 343.34C415.188 343.34 402.754 339.25 397.829 326.094C397.829 326.094 384.669 343.231 350.005 343.34C315.341 343.227 302.181 326.094 302.181 326.094C297.252 339.254 284.822 343.34 284.822 343.34L254.357 355.828C265.669 366.301 274.349 378.789 280.173 393.18H280.17Z" fill="white"/>
<path d="M532.28 429.57C532.28 429.57 531.44 396.976 509.21 382.136L468.159 365.171C449.061 379.171 437.526 398.714 433.886 423.523H438.816C450.519 423.523 459.984 431.98 459.984 442.394V481.148H532.281L532.28 429.57Z" fill="white"/>
<path d="M438.37 481.15V445.029H261.58V481.15H438.37ZM421.964 453.373C426.667 453.373 430.421 457.182 430.421 461.885C430.421 466.533 426.667 470.283 421.964 470.283C417.261 470.283 413.507 466.529 413.507 461.885C413.507 457.182 417.261 453.373 421.964 453.373ZM277.984 470.287C273.336 470.287 269.527 466.533 269.527 461.889C269.527 457.186 273.281 453.377 277.984 453.377C282.687 453.377 286.496 457.186 286.496 461.889C286.496 466.533 282.742 470.287 277.984 470.287Z" fill="white"/>
<path d="M261.18 423.53H266.11C262.469 398.721 250.934 379.178 231.837 365.178L190.79 382.147C168.501 396.987 167.716 429.577 167.716 429.577V481.151H240.013V442.346C240.013 431.987 249.532 423.53 261.181 423.53H261.18Z" fill="white"/>
</svg>
