<svg width="700" height="700" viewBox="0 0 700 700" fill="none" xmlns="http://www.w3.org/2000/svg">
<path d="M525 175H515.219L516.078 173.285L513.805 145.969C510.844 110.453 482.168 87.5002 440.754 87.5002H399.254C357.84 87.5002 329.168 110.453 326.207 145.969L323.933 173.285L324.781 175H315C305.332 175 297.5 182.832 297.5 192.5V210C297.5 219.668 305.332 227.5 315 227.5H325.938L323.75 210.559V201.25C323.75 192.325 325.035 183.516 327.461 175C327.707 174.125 327.906 173.235 328.18 172.368C340.883 132.075 377.782 105.001 420 105.001C462.218 105.001 499.117 132.075 511.824 172.368C512.093 173.243 512.304 174.133 512.55 175.02C514.965 183.532 516.25 192.332 516.25 201.25V210.559L514.062 227.5H525C534.668 227.5 542.5 219.668 542.5 210V192.5C542.5 182.832 534.668 175 525 175L525 175Z" fill="white"/>
<path d="M420 428.75C397.992 428.75 383.703 435.313 376.234 448.656C382.183 458.633 391.589 466.312 403.035 470.043C402.797 470.836 402.5 471.633 402.5 472.5V507.5C402.5 512.312 406.437 516.25 411.25 516.25C411.25 525.902 403.402 533.75 393.75 533.75H288.75C279.097 533.75 271.25 525.902 271.25 516.25V157.5C271.25 133.375 251.625 113.75 227.5 113.75C203.375 113.75 183.75 133.375 183.75 157.5V210C178.922 210 175 213.922 175 218.75V236.25H173.101C164.301 236.25 156.703 242.691 155.417 251.43L148.941 303.727C148.206 308.688 149.675 313.727 152.976 317.551C156.3 321.403 161.12 323.614 166.257 323.711V341.25H183.757V323.75H201.257V341.25H218.757V323.715C223.886 323.618 228.714 321.407 232.038 317.555C235.335 313.731 236.807 308.692 236.097 303.942L229.569 251.231C228.296 242.692 220.702 236.251 211.897 236.251H209.999V218.751C209.999 213.923 206.077 210.001 201.249 210.001V157.501C201.249 143.028 213.026 131.251 227.499 131.251C241.972 131.251 253.749 143.028 253.749 157.501V516.251C253.749 535.552 269.448 551.251 288.749 551.251H393.749C413.05 551.251 428.749 535.552 428.749 516.251C433.561 516.251 437.499 512.314 437.499 507.501V472.501C437.499 471.626 437.237 470.829 436.999 470.024C448.425 466.29 457.823 458.622 463.765 448.657C456.296 435.313 442.007 428.751 419.999 428.751L420 428.75Z" fill="white"/>
<path d="M440.75 70C470.562 70 495.387 80.535 511.527 98.305C507.777 65.321 502.789 38.325 500.375 26.25H481.246V52.5H463.746V8.75H446.246V52.5H428.746V8.75H411.246V52.5H393.746V8.75H376.246V52.5H358.746V26.25H339.617C337.203 38.332 332.215 65.32 328.469 98.305C344.614 80.535 369.438 70 399.242 70H440.75Z" fill="white"/>
<path d="M481.21 151.71C474.593 158.667 463.753 174.171 463.753 201.253V271.253C463.753 285.726 451.976 297.503 437.503 297.503H402.503C388.03 297.503 376.253 285.726 376.253 271.253V201.253C376.253 174.163 365.386 158.632 358.804 151.702C352.722 159.237 347.929 167.952 344.874 177.636C342.468 185.249 341.253 193.195 341.253 201.253V209.444L369.534 428.564C380.979 417.076 397.874 411.255 420.003 411.255C442.14 411.255 459.026 417.076 470.472 428.564L498.753 209.444V201.253C498.753 193.194 497.538 185.249 495.132 177.636C492.077 167.952 487.28 159.238 481.21 151.71H481.21Z" fill="white"/>
<path d="M402.5 280H437.5C442.32 280 446.25 276.07 446.25 271.25V201.25C446.25 168.43 459.84 148.793 468.781 139.422C455.234 128.731 438.242 122.5 420 122.5C401.758 122.5 384.766 128.73 371.219 139.422C380.16 148.793 393.75 168.43 393.75 201.25V271.25C393.75 276.07 397.68 280 402.5 280ZM411.25 157.5H428.75V210H411.25V157.5ZM411.25 227.5H428.75V245H411.25V227.5Z" fill="white"/>
</svg>
