<svg width="700" height="700" viewBox="0 0 700 700" fill="none" xmlns="http://www.w3.org/2000/svg">
<path d="M236.2 17.539L221.368 26.1054L249.266 74.4454L264.098 65.879L236.2 17.539ZM351.15 27.3398C333.791 27.3398 316.83 29.0976 300.451 32.4531V32.4492C298.869 32.7422 297.471 33.6562 296.568 34.9922C295.67 36.3281 295.346 37.9688 295.67 39.543C295.99 41.1211 296.935 42.5039 298.287 43.375C299.643 44.25 301.287 44.5391 302.857 44.1836C318.451 40.9922 334.603 39.3203 351.15 39.3203C367.701 39.3203 383.849 40.9922 399.447 44.1836C415.041 47.375 430.084 52.0859 444.412 58.1486C458.744 64.2111 472.353 71.6216 485.103 80.2306C497.849 88.8439 509.736 98.6526 520.576 109.493C531.416 120.333 541.217 132.208 549.83 144.958C558.444 157.704 565.861 171.325 571.924 185.657C577.987 199.989 582.697 215.032 585.889 230.626C589.081 246.22 590.753 262.372 590.753 278.923C590.753 295.474 589.081 311.622 585.889 327.216C585.534 328.786 585.827 330.43 586.702 331.782C587.573 333.137 588.956 334.079 590.53 334.403C592.108 334.727 593.749 334.399 595.081 333.501C596.417 332.602 597.331 331.204 597.624 329.622C600.975 313.243 602.737 296.282 602.737 278.923C602.737 261.564 600.979 244.603 597.624 228.224C594.272 211.845 589.327 196.052 582.964 181.001C576.597 165.95 568.808 151.642 559.765 138.259C550.722 124.876 540.433 112.407 529.05 101.029C517.671 89.6498 505.202 79.3568 491.82 70.3138C478.437 61.2708 464.129 53.4818 449.078 47.1148C434.027 40.7476 418.226 35.8058 401.848 32.4548C385.47 29.1038 368.516 27.3415 351.157 27.3415L351.15 27.3398ZM213.8 36.9648C213.3 37.7265 212.781 38.4804 212.226 39.2109C209.085 43.3476 205.081 46.9453 200.316 49.6989C195.546 52.4528 190.417 54.1247 185.261 54.7731C180.976 55.3161 176.675 55.1403 172.511 54.3122L105.261 93.2302C96.378 98.8005 89.0618 106.238 83.8038 115.554C78.5265 124.914 75.8858 135.202 75.6358 145.96C75.5304 150.659 75.9054 155.448 76.7061 160.269C77.5226 158.64 78.3936 157.046 79.3545 155.511C83.9483 148.152 90.2065 141.898 97.9525 137.425C105.699 132.953 114.238 130.66 122.91 130.359C131.476 130.062 140.164 131.691 148.512 134.961L148.515 134.964C148.75 135.043 148.984 135.136 149.207 135.242C150.691 135.906 151.84 137.14 152.394 138.668L173.011 174.395L221.464 146.415L200.773 110.571H200.777C199.976 109.594 199.508 108.391 199.437 107.129C199.43 107.055 199.422 106.977 199.418 106.899V106.879C199.371 105.918 199.555 104.961 199.957 104.09C201.313 99.5393 203.465 95.2229 206.383 91.3711C209.523 87.2305 213.535 83.6367 218.305 80.8831C223.074 78.1292 228.195 76.4495 233.348 75.7972C234.262 75.6917 235.168 75.6058 236.082 75.5589L213.8 36.9648ZM305.655 89.2378L259.655 115.797L266.108 126.973L266.112 126.977C266.272 127.211 266.413 127.457 266.538 127.715L425.358 402.815L470.948 376.495C475.022 374.143 479.378 372.655 483.764 371.991C496.682 370.038 509.823 375.264 516.717 386.585C516.857 386.78 516.986 386.984 517.104 387.194C520.486 393.054 529.459 395.124 537.834 390.288L549.283 383.683L583.974 363.652L582.032 357.82L571.454 354.355V354.359C569.657 353.769 568.243 352.363 567.646 350.566L564.153 340.093L553.575 336.636C551.775 336.042 550.361 334.632 549.763 332.835L546.271 322.374L535.693 318.909V318.905C533.896 318.316 532.482 316.909 531.88 315.112L528.384 304.639L517.806 301.178L517.81 301.182C516.009 300.589 514.599 299.178 514.001 297.378L510.509 286.917L499.939 283.448V283.452C498.138 282.862 496.72 281.456 496.119 279.659L492.627 269.186L482.057 265.725V265.729C480.252 265.135 478.834 263.725 478.236 261.924L474.752 251.463L464.174 247.994L464.178 247.998C462.373 247.408 460.955 246.002 460.354 244.205L456.869 233.732L446.291 230.263H446.295C444.494 229.674 443.076 228.267 442.475 226.47L438.99 216.009L428.412 212.541C426.608 211.951 425.19 210.541 424.592 208.74L421.108 198.279L410.53 194.81C408.729 194.22 407.311 192.814 406.709 191.017L403.221 180.556L392.643 177.087H392.647C390.842 176.497 389.428 175.087 388.827 173.286L385.342 162.825L374.768 159.357C372.968 158.767 371.55 157.36 370.948 155.564L367.464 145.103L356.886 141.638V141.634C355.081 141.044 353.663 139.634 353.065 137.833L349.581 127.372L339.003 123.903V123.899C337.202 123.313 335.788 121.907 335.183 120.11L331.698 109.637L321.12 106.18C319.319 105.587 317.901 104.176 317.304 102.376L313.816 91.9106L305.655 89.2378ZM351.147 111.199C349.702 111.199 348.253 111.214 346.807 111.242C346.163 111.261 345.526 111.285 344.881 111.304L345.592 113.437L356.17 116.906H356.174C357.971 117.496 359.385 118.902 359.987 120.699L363.479 131.172L374.057 134.629C375.858 135.223 377.272 136.633 377.869 138.43L381.362 148.891L391.932 152.359H391.928C393.729 152.949 395.147 154.356 395.748 156.152L399.24 166.625L409.806 170.082H409.81C411.615 170.672 413.029 172.082 413.63 173.883L417.115 184.348L427.693 187.813C429.494 188.403 430.912 189.809 431.513 191.61L434.998 202.083L445.576 205.54V205.536C447.376 206.126 448.794 207.54 449.392 209.341L452.876 219.802L463.454 223.267V223.27C465.259 223.86 466.677 225.27 467.275 227.071L470.759 237.536L481.337 241.001C483.138 241.587 484.556 242.997 485.157 244.794L488.642 255.255L499.22 258.72L499.216 258.724C501.021 259.314 502.439 260.724 503.036 262.528L506.521 272.989L517.099 276.454C517.731 276.661 518.321 276.97 518.849 277.372C518.806 272.103 518.524 266.888 518.001 261.747C517.431 256.107 516.575 250.552 515.462 245.095C514.345 239.638 512.966 234.279 511.333 229.029C509.7 223.779 507.813 218.638 505.692 213.623C503.571 208.608 501.22 203.713 498.638 198.963C496.056 194.209 493.251 189.6 490.235 185.139C487.22 180.678 483.997 176.37 480.579 172.229C477.161 168.089 473.54 164.1 469.747 160.307C465.954 156.514 461.978 152.901 457.837 149.483C453.696 146.065 449.388 142.839 444.923 139.827C440.462 136.811 435.845 134.007 431.091 131.425C426.337 128.843 421.451 126.491 416.435 124.37C411.42 122.249 406.283 120.362 401.029 118.729C395.779 117.097 390.42 115.718 384.959 114.601C379.502 113.483 373.943 112.636 368.307 112.061C362.666 111.487 356.944 111.194 351.151 111.194L351.147 111.199ZM298.002 112.558C299.166 112.539 300.326 112.664 301.447 112.976C304.432 113.777 307.111 115.703 308.752 118.546C312.033 124.234 310.057 131.683 304.365 134.968C298.674 138.254 291.224 136.254 287.943 130.566C284.662 124.879 286.646 117.421 292.338 114.132C294.115 113.105 296.064 112.597 298.002 112.554L298.002 112.558ZM298.358 124.472V124.48H298.361L298.358 124.472ZM298.358 124.48C298.358 124.48 298.358 124.492 298.315 124.5C298.252 124.543 298.252 124.48 298.307 124.562C298.35 124.648 298.295 124.625 298.369 124.582C298.432 124.539 298.412 124.601 298.369 124.519C298.35 124.476 298.35 124.457 298.35 124.457L298.358 124.48ZM259.053 138.734C258.494 139.101 257.928 139.464 257.373 139.84C252.912 142.855 248.596 146.078 244.451 149.496C240.529 152.73 236.763 156.144 233.154 159.719L351.104 364.049C356.994 363.83 362.842 366.822 365.963 372.232C369.221 377.881 368.686 384.767 365.17 389.837L405.658 437.587C406.06 437.458 406.466 437.306 406.869 437.165C407.513 436.935 408.166 436.712 408.806 436.478C409.447 436.244 410.087 436.001 410.724 435.759C411.365 435.517 412.002 435.267 412.634 435.017C413.271 434.767 413.896 434.513 414.525 434.255C415.154 433.997 415.791 433.736 416.416 433.466C419.838 432.017 423.197 430.455 426.498 428.79L259.053 138.734ZM220.162 161.16L183.037 182.598L302.617 389.758L339.741 368.32L220.162 161.16ZM124.795 177.258H124.802C122.396 177.297 120.248 178.77 119.345 181C112.978 196.051 108.033 211.844 104.681 228.223C101.33 244.602 99.5719 261.563 99.5719 278.926C99.5719 296.285 101.33 313.246 104.681 329.625C108.033 346.004 112.978 361.801 119.345 376.852C125.713 391.903 133.497 406.211 142.54 419.594C151.583 432.977 161.872 445.446 173.255 456.824C184.634 468.203 197.103 478.5 210.485 487.539C223.868 496.582 238.169 504.367 253.219 510.734C268.269 517.101 284.074 522.046 300.453 525.398C308.645 527.074 316.98 528.351 325.437 529.207H325.433C327.027 529.386 328.625 528.922 329.871 527.918C331.117 526.914 331.91 525.453 332.074 523.859C332.234 522.265 331.75 520.672 330.73 519.437C329.711 518.203 328.242 517.429 326.644 517.285C318.59 516.469 310.652 515.254 302.855 513.66C287.261 510.469 272.214 505.758 257.886 499.695C243.554 493.632 229.933 486.226 217.187 477.613C204.441 469 192.566 459.191 181.726 448.347C170.886 437.507 161.074 425.636 152.46 412.886C143.847 400.14 136.433 386.515 130.37 372.187C124.308 357.855 119.608 342.812 116.417 327.218C113.226 311.624 111.542 295.472 111.542 278.925C111.542 262.374 113.226 246.226 116.417 230.628C119.609 215.034 124.312 199.987 130.37 185.659V185.655C131.191 183.792 131.003 181.636 129.878 179.936C128.749 178.237 126.839 177.229 124.8 177.257L124.795 177.258ZM192.815 223.485C192.17 225.325 191.545 227.176 190.963 229.048C189.33 234.298 187.951 239.657 186.834 245.114C185.717 250.571 184.857 256.126 184.287 261.766C183.717 267.406 183.42 273.129 183.42 278.922C183.42 284.715 183.713 290.442 184.287 296.078C184.857 301.718 185.717 307.269 186.834 312.73C187.951 318.187 189.33 323.549 190.963 328.799C192.596 334.049 194.482 339.191 196.604 344.206C198.725 349.221 201.076 354.116 203.658 358.866C206.24 363.619 209.045 368.229 212.061 372.69C215.076 377.15 218.299 381.459 221.717 385.6C225.135 389.74 228.744 393.717 232.541 397.514C236.334 401.307 240.31 404.928 244.455 408.346C248.599 411.764 252.912 414.99 257.377 418.002C261.838 421.017 266.447 423.818 271.201 426.4C275.955 428.982 280.845 431.338 285.861 433.459C290.876 435.58 296.017 437.467 301.267 439.099C306.044 440.584 310.915 441.849 315.865 442.908L308.576 422.533C302.419 423.06 296.17 420.072 292.904 414.416C289.783 409.01 290.134 402.463 293.247 397.467L192.815 223.485ZM352.115 375.955C351.286 375.912 350.423 376.103 349.615 376.568L304.838 402.423C302.681 403.669 301.982 406.197 303.271 408.431H303.279H303.287C304.576 410.662 307.107 411.337 309.263 410.091L354.036 384.224C356.193 382.978 356.884 380.451 355.595 378.22C354.95 377.103 353.993 376.377 352.931 376.088C352.665 376.025 352.392 375.982 352.118 375.959L352.115 375.955ZM489.794 383.494C485.568 383.389 481.111 384.447 476.919 386.869L431.333 413.193L498.876 530.193L535.439 509.084H535.446C535.544 509.033 535.642 508.983 535.739 508.936C535.837 508.893 535.935 508.85 536.036 508.811C536.118 508.772 536.204 508.736 536.29 508.705C536.376 508.674 536.462 508.647 536.552 508.619C536.661 508.58 536.771 508.545 536.884 508.514C536.958 508.498 537.028 508.483 537.103 508.471C537.224 508.44 537.345 508.412 537.466 508.385C537.556 508.369 537.646 508.358 537.735 508.346C537.841 508.334 537.946 508.326 538.052 508.322C538.138 508.318 538.224 508.315 538.314 508.315C538.427 508.311 538.544 508.311 538.661 508.315C538.751 508.318 538.837 508.322 538.927 508.33C539.032 508.338 539.138 508.342 539.239 508.354C539.341 508.365 539.446 508.377 539.548 508.397C539.642 508.408 539.731 508.42 539.825 508.44C539.915 508.463 540.009 508.49 540.103 508.522C540.204 508.549 540.31 508.576 540.411 508.608C540.505 508.639 540.599 508.674 540.689 508.713C540.774 508.744 540.86 508.783 540.946 508.818C541.048 508.865 541.146 508.916 541.243 508.967C541.321 509.006 541.403 509.049 541.481 509.092C541.579 509.147 541.673 509.205 541.767 509.264C541.833 509.303 541.896 509.346 541.958 509.389C542.052 509.459 542.138 509.533 542.228 509.611C542.29 509.666 542.353 509.721 542.415 509.779C542.489 509.842 542.564 509.904 542.638 509.971C542.716 510.045 542.794 510.127 542.868 510.205C542.927 510.279 542.985 510.354 543.04 510.428C543.099 510.502 543.153 510.58 543.208 510.658C543.274 510.756 543.337 510.854 543.399 510.955C543.442 511.018 543.485 511.08 543.524 511.147C543.548 511.174 543.567 511.201 543.587 511.229C546.181 515.721 553.751 517.502 561.232 513.182L624.377 476.717L579.502 398.99C574.646 390.58 565.842 387.881 560.018 391.244L555.225 394.013L543.76 400.63C530.842 408.087 514.334 405.619 506.998 393.673H507.002C506.885 393.501 506.775 393.322 506.678 393.142C503.205 387.13 496.803 383.646 489.756 383.455L489.794 383.494ZM355.645 397.135L319.649 417.924L357.047 522.454C360.672 532.587 369.069 538.794 379.573 541.309C390.073 543.825 402.409 542.227 412.143 536.602C421.878 530.981 429.429 521.098 432.499 510.743C435.573 500.388 434.401 490.005 427.44 481.798L355.645 397.135ZM484.484 409.033H484.488C486.742 408.943 488.856 410.123 489.957 412.092L498.375 426.686C499.227 428.065 499.481 429.729 499.086 431.299C498.688 432.865 497.672 434.209 496.27 435.018C494.867 435.826 493.199 436.037 491.641 435.592C490.082 435.151 488.77 434.096 488 432.67L479.582 418.088C478.5 416.276 478.453 414.022 479.461 412.166C480.469 410.307 482.379 409.115 484.488 409.033L484.484 409.033ZM463.613 421.088L463.621 421.084C465.871 420.998 467.977 422.182 469.078 424.147L477.496 438.737C478.332 440.116 478.578 441.772 478.176 443.334C477.778 444.893 476.766 446.229 475.367 447.034C473.973 447.838 472.313 448.049 470.758 447.616C469.207 447.178 467.895 446.139 467.121 444.725L458.703 430.139V430.143C457.621 428.327 457.574 426.073 458.582 424.213C459.594 422.354 461.508 421.166 463.621 421.084L463.613 421.088ZM569.343 423.928C575.75 423.779 582.073 427.045 585.476 432.94C590.426 441.514 587.465 452.667 578.891 457.616L516.266 493.772C507.691 498.721 496.555 495.713 491.602 487.139C486.652 478.565 489.617 467.42 498.191 462.467L560.816 426.307C563.496 424.76 566.426 423.99 569.34 423.924L569.343 423.928ZM570.293 435.842C569.136 435.779 567.933 436.033 566.812 436.69L504.187 472.846C501.195 474.572 500.242 478.127 501.984 481.146C503.726 484.166 507.285 485.123 510.277 483.392L572.906 447.232C575.898 445.506 576.855 441.939 575.113 438.924C574.023 437.037 572.226 435.959 570.297 435.842L570.293 435.842Z" fill="white"/>
</svg>
