<svg width="700" height="700" viewBox="0 0 700 700" fill="none" xmlns="http://www.w3.org/2000/svg">
<path d="M362.17 173.33C362.17 178.24 358.194 182.221 353.283 182.221C348.373 182.221 344.393 178.24 344.393 173.33C344.393 168.424 348.373 164.443 353.283 164.443C358.194 164.443 362.17 168.424 362.17 173.33Z" fill="white"/>
<path d="M345.54 147.61C345.661 147.59 357.263 145.696 365.29 151.348C366.067 151.895 366.962 152.161 367.845 152.161C369.239 152.161 370.618 151.508 371.481 150.278C372.895 148.274 372.415 145.501 370.411 144.083C359.317 136.262 344.626 138.747 344.005 138.856C341.595 139.282 339.986 141.575 340.403 143.989C340.821 146.403 343.134 148.04 345.54 147.61H345.54Z" fill="white"/>
<path d="M273.29 173.33C273.29 178.24 269.31 182.221 264.399 182.221C259.493 182.221 255.513 178.24 255.513 173.33C255.513 168.424 259.493 164.443 264.399 164.443C269.31 164.443 273.29 168.424 273.29 173.33Z" fill="white"/>
<path d="M249.84 152.16C250.723 152.16 251.617 151.894 252.395 151.347C260.367 145.73 271.872 147.566 272.141 147.609C274.551 148.023 276.855 146.418 277.281 144C277.707 141.582 276.094 139.277 273.676 138.851C273.055 138.746 258.367 136.262 247.27 144.078C245.266 145.492 244.781 148.265 246.199 150.273C247.071 151.508 248.446 152.16 249.84 152.16H249.84Z" fill="white"/>
<path d="M527.91 519.38C527.836 514.095 525.633 509.399 522.328 506.196C522.687 505.829 523.082 505.512 523.418 505.102C526.121 501.778 527.578 497.43 527.512 492.872C527.375 483.235 520.426 475.481 511.989 475.481H511.793L509.532 475.512V414.723L520.735 418.403C522.555 418.989 524.567 418.36 525.703 416.813C526.84 415.266 526.856 413.157 525.731 411.591L512.247 392.79C558.954 347.532 568.509 266.13 568.899 262.62C569.149 260.413 567.719 258.358 565.567 257.819C563.407 257.28 561.184 258.42 560.36 260.483C559.403 262.874 557.985 265.295 556.325 267.647C565.602 236.456 561.559 201.073 561.336 199.194C561.055 196.842 558.942 195.214 556.614 195.288C554.25 195.452 552.43 197.444 552.477 199.811C552.641 207.971 548.422 219.448 543.883 229.362C545.102 195.87 534.344 178.858 533.789 178.003C532.758 176.421 530.824 175.656 528.984 176.12C527.145 176.581 525.801 178.156 525.637 180.046C525.336 183.519 517.152 195.069 507.77 206.624L509.16 170.772C509.219 169.374 508.606 168.022 507.512 167.139C506.414 166.26 504.965 165.944 503.613 166.296C493.809 168.807 484.761 181.648 478.722 192.394L477 166.902C476.867 164.898 475.406 163.234 473.429 162.843C471.461 162.437 469.472 163.429 468.582 165.23C453.293 196.132 449.379 244 456.945 307.49C461.855 348.678 470.273 383.392 472.34 391.568L471.695 392.646L458.386 410.814C457.296 412.298 457.238 414.302 458.234 415.849C459.23 417.396 461.074 418.169 462.882 417.79L477.234 414.767V475.986L469.055 476.103L468.465 474.947C451.172 425.267 424.133 386.888 387.973 360.777L360.18 342.066C355.574 331.265 345.516 324.234 340.836 321.433L340.801 305.046C369.434 294.296 391.981 271.526 401.516 255.636C404.109 251.308 406.543 246.023 408.781 239.964C421.879 239.773 434.191 230.257 439.551 215.679C446.368 197.144 439.188 176.999 423.555 170.773C423.29 170.668 422.997 170.586 422.719 170.488C423.817 158.441 424.391 145.929 424.391 133.336C424.391 133.148 424.383 132.961 424.356 132.781L423.762 128.066C430.583 125.945 435.582 119.644 435.582 112.132V108.398C435.582 99.355 428.367 92.011 419.402 91.695L419.199 90.6989C410.84 56.8239 385.383 0.00390625 308.839 0.00390625C232.222 0.00390625 206.779 56.9139 198.359 91.1839L198.273 91.6956C189.293 91.9925 182.058 99.344 182.058 108.403V112.137C182.058 119.657 187.062 125.953 193.894 128.075L193.312 132.794C193.289 132.974 193.281 133.157 193.281 133.337C193.281 145.927 193.855 158.442 194.929 170.489C194.66 170.586 194.371 170.661 194.109 170.77C178.464 176.993 171.289 197.145 178.101 215.676C183.46 230.258 195.777 239.774 208.871 239.961C211.109 246.016 213.543 251.305 216.137 255.633C225.676 271.528 248.223 294.297 276.86 305.047V321.434C272.18 324.235 262.13 331.262 257.528 342.051L229.567 360.852C162.153 409.54 138.805 493.302 131.094 555.012C130.933 556.274 131.328 557.547 132.172 558.504C133.015 559.461 134.226 560.008 135.504 560.008H197.727C200.008 560.008 201.918 558.278 202.149 556.012C202.16 555.848 203.469 543.461 207.567 529.426L211.102 556.145C211.387 558.356 213.274 560.008 215.504 560.008H402.174C404.393 560.008 406.272 558.372 406.573 556.176L410.229 529.864C414.221 543.7 415.51 555.856 415.522 556.012C415.76 558.278 417.67 560.008 419.948 560.008H482.171V560.001L514.405 560.008C517.764 559.965 520.994 558.524 523.502 555.946C526.576 552.79 528.303 548.294 528.237 543.61C528.17 538.969 526.26 534.903 523.366 532.09C526.225 528.84 527.987 524.344 527.912 519.387L527.91 519.38ZM383.23 368.3C386.109 370.39 388.91 372.589 391.671 374.847L386.695 466.738H377.847L383.23 368.3ZM340.859 339.284V332.136C345.535 335.686 351.355 341.405 353.156 348.827L357.199 392.944L320.074 377.975L340.301 341.436C340.668 340.775 340.86 340.037 340.86 339.283L340.859 339.284ZM276.879 395.932L287.012 391.846L288.328 392.807C303.754 403.588 332.242 427.268 353.496 466.741H343.25C317.559 421.913 281.961 399.038 276.879 395.932L276.879 395.932ZM302.637 428.295C291.774 440.072 282.285 452.94 274.371 466.736H264.117C272.789 450.65 283.523 435.65 296.105 422.045C298.214 423.979 300.39 426.053 302.636 428.295H302.637ZM306.582 375.772L285.746 338.131V307.932C293.149 309.944 300.875 311.112 308.836 311.112C316.801 311.112 324.535 309.944 331.938 307.928L331.97 324.033V338.131L311.134 375.772L306.583 375.776L306.582 375.772ZM315.543 403.456C320.106 399.597 324.707 395.975 329.32 392.749L330.613 391.808L340.75 395.897C338.653 397.167 331.629 401.647 322.043 409.702C319.832 407.484 317.668 405.425 315.543 403.456V403.456ZM431.233 212.606C427.686 222.247 420.065 229.063 411.881 230.657C416.229 216.294 419.643 198.845 421.787 179.856C431.869 185.051 436.154 199.227 431.233 212.606H431.233ZM349.846 16.146C388.596 31.423 404.135 67.509 410.272 91.634L329.374 91.6379C329.581 78.4899 331.745 38.3999 349.847 16.1459L349.846 16.146ZM267.811 16.1577C285.881 38.3847 288.065 78.4897 288.276 91.6377H207.409C213.612 67.3487 229.179 31.3957 267.811 16.1577V16.1577ZM190.959 112.135V108.4C190.959 104.056 194.487 100.529 198.83 100.529H418.83C423.174 100.529 426.701 104.064 426.701 108.4V112.135C426.701 116.478 423.174 120.006 418.83 120.006H198.83C194.487 120.006 190.959 116.471 190.959 112.135V112.135ZM397.729 133.338C397.729 183.768 388.143 226.123 378.67 241.908C368.068 259.568 339.393 284.451 308.838 284.451C278.283 284.451 249.608 259.572 239.006 241.908C229.537 226.127 219.947 183.771 219.944 133.558L220.179 128.897H397.559L397.729 133.338ZM186.439 212.611C181.525 199.236 185.799 185.064 195.881 179.865C198.029 198.845 201.439 216.287 205.787 230.646C197.619 229.04 189.982 222.243 186.439 212.611H186.439ZM223.755 251.049C211.071 229.901 202.2 181.643 202.169 133.609L202.747 128.898H211.267L211.056 133.339C211.056 185.382 221.279 229.651 231.38 246.479C243.056 265.94 274.802 293.338 308.833 293.338C342.864 293.338 374.61 265.94 386.286 246.479C396.388 229.651 406.61 185.385 406.606 133.169L406.442 128.896H414.903L415.5 133.618C415.465 181.649 406.598 229.911 393.914 251.058C382.035 270.843 348.445 302.23 308.832 302.23C269.219 302.23 235.629 270.843 223.754 251.05L223.755 251.049ZM264.564 348.826C266.357 341.451 272.178 335.724 276.861 332.158V339.283C276.861 340.037 277.053 340.775 277.416 341.435L297.643 377.974L260.518 392.943L264.564 348.826ZM233.986 368.631L239.353 466.736H230.502L225.451 375.271C228.342 372.88 231.189 370.669 233.986 368.63V368.631ZM398.296 551.111H219.396L214.783 516.216H403.153L398.296 551.111ZM404.386 507.33H213.606L209.415 475.619H408.795L404.386 507.33ZM500.64 417.021V475.642L486.136 475.845V418.447L490.066 422.83C490.909 423.771 492.117 424.306 493.378 424.306C493.48 424.306 493.581 424.302 493.691 424.298C495.058 424.205 496.304 423.478 497.07 422.341L500.64 417.021ZM487.71 243.331C488.327 240.956 490.753 239.51 493.128 240.143C495.507 240.756 496.933 243.182 496.319 245.561C492.331 260.959 488.687 288.217 493.984 330.612C494.284 333.05 492.562 335.268 490.124 335.573C489.937 335.597 489.749 335.608 489.569 335.608C487.362 335.608 485.444 333.964 485.163 331.714C480.769 296.562 481.628 266.823 487.71 243.331L487.71 243.331ZM456.093 508.071C454.034 510.598 452.71 513.719 452.222 517.075C450.726 516.602 449.499 515.782 448.695 514.977C446.171 512.469 444.683 508.434 444.706 504.192C444.745 498.192 447.824 492.977 451.831 491.2C451.714 492.106 451.613 493.016 451.628 493.965C451.702 499.223 453.851 503.868 457.116 507.051C456.777 507.395 456.409 507.688 456.093 508.071L456.093 508.071ZM517.132 549.743C516.53 550.36 515.55 551.098 514.347 551.118L476.003 551.11C474.897 551.075 473.929 550.469 473.358 549.911C472.03 548.625 471.218 546.567 471.186 544.422C471.132 540.754 473.347 537.629 476.022 537.583L496.741 537.286C499.194 537.25 501.159 535.231 501.124 532.774C501.089 530.321 499.023 528.477 496.616 528.395L475.928 528.692C475.924 528.692 475.921 528.688 475.917 528.692C475.913 528.692 475.905 528.696 475.897 528.696L467.604 528.817H467.538C463.995 528.817 460.96 524.883 460.893 520.18C460.858 517.704 461.604 515.403 462.995 513.692C464.198 512.215 465.745 511.383 467.35 511.368L493.217 511.001C495.67 510.965 497.635 508.946 497.6 506.489C497.565 504.036 495.596 502.071 493.092 502.11L467.225 502.477H467.155C463.616 502.477 460.581 498.544 460.514 493.852C460.448 489.122 463.405 485.079 466.971 485.032L511.916 484.391C515.323 484.196 518.557 488.29 518.623 493.016C518.659 495.462 517.889 497.825 516.522 499.508C515.319 500.989 513.772 501.817 512.166 501.833C509.713 501.868 507.748 503.883 507.783 506.34C507.783 506.395 507.811 506.434 507.815 506.489C507.815 506.497 507.811 506.508 507.811 506.516C507.846 508.946 509.83 510.895 512.256 510.895C512.299 510.891 512.346 510.891 512.389 510.895C515.928 510.895 518.963 514.829 519.03 519.52C519.096 524.254 516.135 528.293 512.569 528.34C510.116 528.376 508.151 530.395 508.186 532.852C508.221 535.282 510.205 537.231 512.631 537.231H512.698C513.217 537.223 513.709 537.098 514.217 537.036C514.225 537.036 514.237 537.04 514.248 537.04H514.315C516.963 537.188 519.307 540.071 519.358 543.739C519.377 546.036 518.549 548.286 517.131 549.743H517.132Z" fill="white"/>
<path d="M294.29 192.2C299.106 193.567 304.001 194.259 308.833 194.259C313.669 194.259 318.563 193.571 323.376 192.2C325.739 191.532 327.11 189.075 326.438 186.716C325.771 184.356 323.31 182.97 320.954 183.653C312.895 185.934 304.766 185.938 296.708 183.653C294.353 182.973 291.892 184.356 291.224 186.716C290.556 189.075 291.931 191.536 294.29 192.2H294.29Z" fill="white"/>
</svg>
