<svg width="700" height="700" viewBox="0 0 700 700" fill="none" xmlns="http://www.w3.org/2000/svg">
<path d="M420.63 457.93C420.736 459.426 421.997 460.602 423.497 460.602C424.997 460.602 426.259 459.43 426.364 457.93L442.973 225.4H404.012L420.63 457.93Z" fill="white"/>
<path d="M402.82 208.6H444.179L445.976 183.397H401.023L402.82 208.6Z" fill="white"/>
<path d="M469.72 99.3979H377.282C373.083 99.3979 370.915 102.171 370.177 103.363C369.43 104.566 367.907 107.769 369.802 111.562L397.263 166.597H449.728L477.189 111.562C479.083 107.769 477.56 104.562 476.814 103.363C476.079 102.171 473.911 99.3979 469.72 99.3979H469.72Z" fill="white"/>
<path d="M221.9 444.85C221.9 453.538 228.966 460.604 237.654 460.604H294.353C303.041 460.604 310.107 453.538 310.107 444.85V435.397H221.908V444.85H221.9Z" fill="white"/>
<path d="M234.5 267.4H221.898V418.6H310.101V267.4H234.5Z" fill="white"/>
<path d="M350 0C195.36 0 70 125.36 70 280C70 434.64 195.36 560 350 560C504.64 560 630 434.64 630 280C630 125.36 504.64 0 350 0ZM326.898 444.85C326.898 462.799 312.3 477.405 294.343 477.405H237.652C219.703 477.405 205.097 462.807 205.097 444.85L205.101 259C205.101 254.363 208.863 250.602 213.499 250.602H226.101V175C226.101 172.187 227.5 169.566 229.844 168.011L292.844 126.011C295.418 124.296 298.734 124.136 301.469 125.589C304.203 127.05 305.902 129.902 305.902 133V250.6H318.504C323.141 250.6 326.902 254.361 326.902 258.998L326.898 444.85ZM492.228 119.06L463.275 177.087L443.127 459.127C442.393 469.373 433.768 477.4 423.498 477.4C413.228 477.4 404.603 469.377 403.869 459.127L383.724 177.097L354.771 119.07C350.841 111.191 351.259 102.019 355.892 94.535C360.513 87.0662 368.509 82.605 377.283 82.605H469.713C478.487 82.605 486.486 87.062 491.104 94.535C495.733 102.016 496.155 111.183 492.229 119.062L492.228 119.06Z" fill="white"/>
<path d="M289.1 148.7L242.897 179.501V250.606H289.1V148.7Z" fill="white"/>
</svg>
