<svg width="700" height="700" viewBox="0 0 700 700" fill="none" xmlns="http://www.w3.org/2000/svg">
<path fill-rule="evenodd" clip-rule="evenodd" d="M481.25 367.5C447.441 367.5 420 394.941 420 428.75C420 462.559 447.441 490 481.25 490C515.059 490 542.5 462.559 542.5 428.75C542.5 394.941 515.059 367.5 481.25 367.5ZM288.75 367.5C254.941 367.5 227.5 394.941 227.5 428.75C227.5 462.559 254.941 490 288.75 490C322.559 490 350 462.559 350 428.75C350 394.941 322.559 367.5 288.75 367.5ZM481.25 402.5C495.738 402.5 507.5 414.262 507.5 428.75C507.5 443.238 495.738 455 481.25 455C466.762 455 455 443.238 455 428.75C455 414.262 466.762 402.5 481.25 402.5ZM288.75 402.5C303.238 402.5 315 414.262 315 428.75C315 443.238 303.238 455 288.75 455C274.262 455 262.5 443.238 262.5 428.75C262.5 414.262 274.262 402.5 288.75 402.5ZM537.14 70H157.5C142.273 70 127.801 76.5977 117.844 88.094C107.871 99.594 103.371 114.852 105.524 129.922L112.262 177.102C113.629 186.657 122.5 193.325 132.074 191.942C141.629 190.575 148.277 181.704 146.914 172.149L140.176 124.969C139.457 119.946 140.961 114.871 144.289 111.039C147.594 107.203 152.426 105 157.5 105H177.328L205.887 304.92C209.579 330.783 231.735 349.998 257.864 349.998H512.134C538.263 349.998 560.419 330.783 564.111 304.92C570.392 260.94 582.119 178.94 589.119 129.92C591.272 114.85 586.772 99.5919 576.799 88.0919C566.842 76.5959 552.369 69.9979 537.143 69.9979L537.14 70ZM547.324 175L529.457 299.97C528.234 308.595 520.848 315.001 512.133 315.001H257.863C249.148 315.001 241.761 308.595 240.539 299.97L222.672 175H547.324ZM552.312 140H217.682L212.674 105H537.144C542.219 105 547.031 107.203 550.359 111.039C553.684 114.871 555.188 119.945 554.469 124.969L552.312 140Z" fill="white"/>
</svg>
