<svg width="700" height="700" viewBox="0 0 700 700" fill="none" xmlns="http://www.w3.org/2000/svg">
<path fill-rule="evenodd" clip-rule="evenodd" d="M552.21 166.25C534.612 166.25 517.667 172.879 504.733 184.812L431.143 252.691C418.213 264.625 401.479 271.64 383.909 272.48L279.869 277.433C250.51 278.835 227.435 303.035 227.435 332.425V367.46H287.08C297.885 338.233 325.83 317.148 358.685 317.148C391.54 317.148 419.49 338.234 430.29 367.46H603.68V271.241H559.93V201.241H603.68V166.241L552.21 166.25ZM542.433 202.824V271.25H472.433L537.238 206.379C538.742 204.891 540.503 203.688 542.433 202.828L542.433 202.824ZM564.82 290.086H581.09C592.922 289.887 592.922 307.754 581.09 307.586H564.82C552.988 307.785 552.988 289.918 564.82 290.086ZM236.18 385.004C226.516 385.004 218.68 392.84 218.68 402.504C218.68 412.168 226.516 420.004 236.18 420.004H287.075C284.028 411.77 282.118 402.977 282.118 393.723C282.118 390.739 282.676 387.903 283.008 385.004L236.18 385.004ZM434.35 385.004C434.682 387.902 435.24 390.738 435.24 393.723C435.24 402.981 433.33 411.774 430.283 420.004H603.673V385.004L434.35 385.004Z" fill="white"/>
<path d="M358.68 332.51C342.438 332.51 326.856 338.963 315.371 350.448C303.883 361.936 297.43 377.514 297.43 393.76C297.43 410.002 303.883 425.58 315.371 437.069C326.855 448.557 342.437 455.01 358.68 455.01C374.926 455.01 390.504 448.557 401.992 437.069C413.476 425.581 419.93 410.003 419.93 393.76C419.93 377.514 413.477 361.936 401.992 350.448C390.504 338.964 374.926 332.51 358.68 332.51V332.51ZM358.68 367.51C365.641 367.51 372.321 370.276 377.242 375.198C382.164 380.119 384.93 386.795 384.93 393.759C384.93 400.72 382.164 407.397 377.242 412.319C372.32 417.244 365.64 420.01 358.68 420.01C351.719 420.01 345.043 417.244 340.118 412.319C335.196 407.397 332.431 400.72 332.431 393.759C332.431 386.795 335.196 380.119 340.118 375.198C345.044 370.276 351.72 367.51 358.68 367.51Z" fill="white"/>
<path fill-rule="evenodd" clip-rule="evenodd" d="M296.55 116.05C299.097 116.05 301.519 117.163 303.179 119.093L412.419 245.973L399.157 257.387L292.517 133.557H270.302V116.057L296.55 116.05Z" fill="white"/>
<path fill-rule="evenodd" clip-rule="evenodd" d="M340.3 186.05H357.8L357.624 256.05H340.124L340.3 186.05Z" fill="white"/>
<path fill-rule="evenodd" clip-rule="evenodd" d="M148.41 171.88L104.519 240.849C99.1596 249.275 96.312 259.052 96.312 269.037V454.997H131.312L139.382 301.667C139.828 293.21 142.538 285.03 147.238 277.987L169.144 245.132H169.14C170.597 242.948 172.952 241.534 175.562 241.276C178.171 241.023 180.757 241.948 182.609 243.8L189.999 251.19C191.64 252.831 193.866 253.753 196.187 253.753H249.437C256.687 253.753 262.562 247.874 262.562 240.628C262.562 237.144 261.179 233.808 258.718 231.347C256.257 228.886 252.917 227.503 249.437 227.503H222.289C215.535 227.503 206.586 223.265 202.613 217.808C198.707 212.429 196.382 208.269 195.808 203.746C194.374 192.387 193.234 178.91 183.273 172.934L172.179 166.273C168.265 163.926 163.593 163.203 159.152 164.25C154.715 165.301 150.859 168.039 148.41 171.891L148.41 171.88Z" fill="white"/>
<path d="M183.81 131.24C183.81 138.201 186.576 144.881 191.497 149.802C196.419 154.724 203.099 157.489 210.059 157.489C217.019 157.489 223.697 154.724 228.622 149.802C233.543 144.88 236.309 138.2 236.309 131.24C236.309 124.279 233.543 117.603 228.622 112.678C223.696 107.756 217.019 104.99 210.059 104.99C203.099 104.99 196.418 107.756 191.497 112.678C186.576 117.604 183.81 124.28 183.81 131.24Z" fill="white"/>
</svg>
