<svg width="213" height="33" viewBox="0 0 213 33" fill="none" xmlns="http://www.w3.org/2000/svg">
<path d="M34.04 3.68V32H25.2V17.88L20.84 32H13.24L8.88 17.88V32H2.98023e-08V3.68H10.88L17.12 20.68L23.2 3.68H34.04ZM59.8869 20.52C59.8869 21.1333 59.8469 21.72 59.7669 22.28H45.4869C45.6202 24.2267 46.4335 25.2 47.9269 25.2C48.8869 25.2 49.5802 24.76 50.0069 23.88H59.4069C59.0869 25.48 58.4069 26.92 57.3669 28.2C56.3535 29.4533 55.0602 30.4533 53.4869 31.2C51.9402 31.92 50.2335 32.28 48.3669 32.28C46.1269 32.28 44.1269 31.8133 42.3669 30.88C40.6335 29.9467 39.2735 28.6133 38.2869 26.88C37.3269 25.12 36.8469 23.0667 36.8469 20.72C36.8469 18.3733 37.3269 16.3333 38.2869 14.6C39.2735 12.84 40.6335 11.4933 42.3669 10.56C44.1269 9.62667 46.1269 9.16 48.3669 9.16C50.6069 9.16 52.5935 9.62667 54.3269 10.56C56.0869 11.4667 57.4469 12.7733 58.4069 14.48C59.3935 16.1867 59.8869 18.2 59.8869 20.52ZM50.8869 18.4C50.8869 17.6533 50.6469 17.0933 50.1669 16.72C49.6869 16.32 49.0869 16.12 48.3669 16.12C46.7935 16.12 45.8735 16.88 45.6069 18.4H50.8869ZM76.7353 24.44V32H73.3753C67.1886 32 64.0953 28.92 64.0953 22.76V16.84H61.2953V9.44H64.0953V4H72.9753V9.44H76.6553V16.84H72.9753V22.92C72.9753 23.4533 73.0953 23.84 73.3353 24.08C73.602 24.32 74.0286 24.44 74.6153 24.44H76.7353ZM78.9172 20.72C78.9172 18.3467 79.3172 16.2933 80.1172 14.56C80.9439 12.8 82.0639 11.4667 83.4772 10.56C84.8905 9.62667 86.4772 9.16 88.2372 9.16C89.7039 9.16 90.9705 9.46667 92.0372 10.08C93.1039 10.6667 93.9172 11.48 94.4772 12.52V9.44H103.317V32H94.4772V28.92C93.9172 29.96 93.1039 30.7867 92.0372 31.4C90.9705 31.9867 89.7039 32.28 88.2372 32.28C86.4772 32.28 84.8905 31.8267 83.4772 30.92C82.0639 29.9867 80.9439 28.6533 80.1172 26.92C79.3172 25.16 78.9172 23.0933 78.9172 20.72ZM94.4772 20.72C94.4772 19.52 94.1705 18.5867 93.5572 17.92C92.9439 17.2533 92.1572 16.92 91.1972 16.92C90.2372 16.92 89.4505 17.2533 88.8372 17.92C88.2239 18.5867 87.9172 19.52 87.9172 20.72C87.9172 21.92 88.2239 22.8533 88.8372 23.52C89.4505 24.1867 90.2372 24.52 91.1972 24.52C92.1572 24.52 92.9439 24.1867 93.5572 23.52C94.1705 22.8533 94.4772 21.92 94.4772 20.72ZM106.505 17.8C106.505 15 107.065 12.5067 108.185 10.32C109.331 8.13333 110.958 6.44 113.065 5.24C115.171 4.01333 117.651 3.4 120.505 3.4C122.958 3.4 125.145 3.86667 127.065 4.8C129.011 5.70667 130.585 7 131.785 8.68C133.011 10.36 133.825 12.32 134.225 14.56H124.865C124.438 13.6267 123.825 12.9067 123.025 12.4C122.251 11.8667 121.358 11.6 120.345 11.6C118.851 11.6 117.665 12.16 116.785 13.28C115.931 14.4 115.505 15.9067 115.505 17.8C115.505 19.6933 115.931 21.2 116.785 22.32C117.665 23.44 118.851 24 120.345 24C121.358 24 122.251 23.7467 123.025 23.24C123.825 22.7067 124.438 21.9733 124.865 21.04H134.225C133.825 23.28 133.011 25.24 131.785 26.92C130.585 28.6 129.011 29.9067 127.065 30.84C125.145 31.7467 122.958 32.2 120.505 32.2C117.651 32.2 115.171 31.6 113.065 30.4C110.958 29.1733 109.331 27.4667 108.185 25.28C107.065 23.0933 106.505 20.6 106.505 17.8ZM146.302 13.6C147.209 12.2933 148.315 11.2533 149.622 10.48C150.929 9.68 152.289 9.28 153.702 9.28V18.76H151.182C149.502 18.76 148.262 19.0533 147.462 19.64C146.689 20.2267 146.302 21.2667 146.302 22.76V32H137.422V9.44H146.302V13.6ZM154.894 20.72C154.894 18.3467 155.294 16.2933 156.094 14.56C156.92 12.8 158.04 11.4667 159.454 10.56C160.867 9.62667 162.454 9.16 164.214 9.16C165.68 9.16 166.947 9.46667 168.014 10.08C169.08 10.6667 169.894 11.48 170.454 12.52V9.44H179.294V32H170.454V28.92C169.894 29.96 169.08 30.7867 168.014 31.4C166.947 31.9867 165.68 32.28 164.214 32.28C162.454 32.28 160.867 31.8267 159.454 30.92C158.04 29.9867 156.92 28.6533 156.094 26.92C155.294 25.16 154.894 23.0933 154.894 20.72ZM170.454 20.72C170.454 19.52 170.147 18.5867 169.534 17.92C168.92 17.2533 168.134 16.92 167.174 16.92C166.214 16.92 165.427 17.2533 164.814 17.92C164.2 18.5867 163.894 19.52 163.894 20.72C163.894 21.92 164.2 22.8533 164.814 23.52C165.427 24.1867 166.214 24.52 167.174 24.52C168.134 24.52 168.92 24.1867 169.534 23.52C170.147 22.8533 170.454 21.92 170.454 20.72ZM196.281 7.84C195.801 7.78667 195.468 7.76 195.281 7.76C194.615 7.76 194.108 7.89333 193.761 8.16C193.415 8.4 193.175 8.82667 193.041 9.44H196.281V16.84H192.961V32H184.081V16.84H181.681V9.44H184.081C184.135 6.50667 185.055 4.24 186.841 2.64C188.655 1.01333 191.188 0.199999 194.441 0.199999C194.815 0.199999 195.428 0.226666 196.281 0.279998V7.84ZM212.712 24.44V32H209.352C203.165 32 200.072 28.92 200.072 22.76V16.84H197.272V9.44H200.072V4H208.952V9.44H212.632V16.84H208.952V22.92C208.952 23.4533 209.072 23.84 209.312 24.08C209.579 24.32 210.005 24.44 210.592 24.44H212.712Z" fill="#4B1378"/>
</svg>
