<svg width="144" height="45" viewBox="0 0 144 45" fill="none" xmlns="http://www.w3.org/2000/svg">
<path d="M18.4863 11.7148L17.5488 30.3184C17.7832 30.377 17.9883 30.4062 18.1641 30.4062C18.8086 30.4062 19.1699 29.918 19.248 28.9414L20.5371 7.61328C21.1426 7.08594 22.2559 6.61719 23.877 6.20703C25.4199 5.85547 26.8164 5.67969 28.0664 5.67969C31.0156 5.67969 33.2227 6.35352 34.6875 7.70117C36.1523 9.04883 36.8848 10.7871 36.8848 12.916C36.8848 14.1074 36.3965 16.7832 35.4199 20.9434C34.4629 25.084 33.0762 30.6895 31.2598 37.7598C30.5957 40.2402 29.1016 42.0273 26.7773 43.1211C24.7461 44.0586 22.0605 44.5273 18.7207 44.5273C16.6113 44.5273 14.6191 44.293 12.7441 43.8242C10.8691 43.3555 9.36523 42.6816 8.23242 41.8027C6.68945 38.4043 5.13672 33.7363 3.57422 27.7988C2.01172 21.8418 0.839844 15.8164 0.0585938 9.72266C1.89453 7.00781 4.81445 5.65039 8.81836 5.65039C13.9746 5.65039 17.1973 7.67188 18.4863 11.7148ZM53.0859 17.6328V29.2344C53.0859 32.1445 53.7891 34.0391 55.1953 34.918C55.2148 35.0156 55.2246 35.2012 55.2246 35.4746V36.002C55.2246 38.873 54.4434 41.0312 52.8809 42.4766C51.4355 43.8438 49.502 44.5273 47.0801 44.5273C44.6777 44.5273 42.6953 43.8438 41.1328 42.4766C39.1602 40.7383 38.1738 38.1992 38.1738 34.8594V15.8164C38.5254 15.5625 38.9062 15.3574 39.3164 15.2012C39.7266 15.0449 40.1562 14.8496 40.6055 14.6152C39.7656 14.1855 39.0039 13.4434 38.3203 12.3887C37.6367 11.3145 37.2949 10.0645 37.2949 8.63867C37.2949 6.17773 38.1055 4.16602 39.7266 2.60352C41.3477 1.04102 43.3301 0.259766 45.6738 0.259766C48.0371 0.259766 50.0098 1.06055 51.5918 2.66211C53.1934 4.24414 53.9941 6.23633 53.9941 8.63867C53.9941 10.5723 53.3887 12.2715 52.1777 13.7363C50.9668 15.1816 49.4922 16.0898 47.7539 16.4609C47.7539 17.2031 48.0371 17.5742 48.6035 17.5742C49.5996 17.5742 50.6152 17.1836 51.6504 16.4023C52.4316 17.0078 52.9102 17.418 53.0859 17.6328ZM72.0996 21.0312C71.5918 21.1875 71.3379 21.4902 71.3379 21.9395V22.0859C71.3379 22.1836 71.3477 22.2422 71.3672 22.2617C71.582 22.2422 71.8652 22.2324 72.2168 22.2324H72.9199C75.1465 22.2324 77.2266 22.5742 79.1602 23.2578C81.1133 23.9219 82.7051 24.9961 83.9355 26.4805C85.3027 28.1602 85.9863 30.2793 85.9863 32.8379C85.9863 36.8223 84.6094 39.8301 81.8555 41.8613C79.1016 43.8926 75.4199 44.9082 70.8105 44.9082C66.2012 44.9082 62.5879 44.1465 59.9707 42.623C57.373 41.0996 56.0742 38.8633 56.0742 35.9141C56.0742 34.8203 56.3086 33.8242 56.7773 32.9258C57.2461 32.0078 57.7734 31.3633 58.3594 30.9922C59.4336 31.8906 60.9863 32.6719 63.0176 33.3359C65.0684 33.9805 67.2363 34.3027 69.5215 34.3027C70.4395 34.3027 70.8984 34.0488 70.8984 33.541C70.8984 33.3066 70.8691 33.1113 70.8105 32.9551C70.6738 32.9746 70.5078 32.9844 70.3125 32.9844H69.9902C65.8496 32.9844 62.5391 32.1641 60.0586 30.5234C57.2461 28.668 55.8398 26.0508 55.8398 22.6719C55.8398 19.293 57.0996 16.5586 59.6191 14.4688C62.4121 12.1641 66.25 11.0117 71.1328 11.0117C73.5352 11.0117 75.7715 11.2656 77.8418 11.7734C79.9316 12.2812 81.7188 12.9551 83.2031 13.7949C83.5742 14.5957 83.7598 15.7773 83.7598 17.3398C83.7598 19.7227 83.1055 21.5488 81.7969 22.8184C80.8008 22.2715 79.5801 21.8223 78.1348 21.4707C76.709 21.0996 75.4199 20.9141 74.2676 20.9141C73.1152 20.9141 72.3926 20.9531 72.0996 21.0312ZM89.2383 25.4844H91.0547C92.0312 25.4844 92.5195 25.1621 92.5195 24.5176C92.5195 24.4395 92.5 24.3223 92.4609 24.166H85.8984C85.4688 22.7988 85.2539 21.2754 85.2539 19.5957C85.2539 17.8965 85.3809 16.5195 85.6348 15.4648C86.748 14.7617 88.2812 13.6875 90.2344 12.2422C90.7812 10.9141 91.4941 8.80469 92.373 5.91406C92.4902 5.52344 92.627 5.14258 92.7832 4.77148C94.3066 4.38086 96.0449 4.18555 97.998 4.18555C99.9512 4.18555 101.875 4.39062 103.77 4.80078V11.9785H108.838C109.971 13.6973 110.537 15.7188 110.537 18.043C110.537 19.0977 110.391 20.1816 110.098 21.2949C109.805 22.4082 109.385 23.3555 108.838 24.1367H104.648V28.5605C104.648 31.0605 105.693 32.3105 107.783 32.3105H109.043C109.453 33.7949 109.658 35.084 109.658 36.1777C109.658 38.873 108.809 40.9434 107.109 42.3887C105.43 43.8145 102.979 44.5273 99.7559 44.5273C96.5527 44.5273 93.9941 43.6387 92.0801 41.8613C90.1855 40.0645 89.2383 37.4277 89.2383 33.9512V25.4844ZM140.889 29.498C140.889 30.9043 141.045 32.0371 141.357 32.8965C141.67 33.7559 142.217 34.4297 142.998 34.918C143.018 35.0156 143.027 35.2012 143.027 35.4746V36.002C143.027 38.7754 142.188 40.9336 140.508 42.4766C139.023 43.8438 137.188 44.5273 135 44.5273C133.516 44.5273 132.158 44.1758 130.928 43.4727C129.697 42.7695 128.818 41.7539 128.291 40.4258C127.627 40.4258 127.295 40.748 127.295 41.3926C127.295 41.9395 127.637 42.5547 128.32 43.2383C127.051 44.0977 125.137 44.5273 122.578 44.5273C118.965 44.5273 116.074 43.5508 113.906 41.5977C111.758 39.625 110.684 36.8809 110.684 33.3652C110.684 29.8301 111.826 27.0957 114.111 25.1621C116.201 23.4238 118.906 22.5547 122.227 22.5547C123.359 22.5547 124.453 22.6328 125.508 22.7891C126.211 22.9258 126.592 23.0039 126.65 23.0234C126.709 22.8281 126.738 22.6621 126.738 22.5254C126.738 22.0176 126.309 21.6758 125.449 21.5C124.59 21.3242 123.467 21.2363 122.08 21.2363C119.131 21.2363 116.611 21.832 114.521 23.0234C113.564 21.4023 113.086 19.3516 113.086 16.8711C113.086 15.4648 113.262 14.4199 113.613 13.7363C115.02 13.0918 116.807 12.5254 118.975 12.0371C121.143 11.5293 123.428 11.2754 125.83 11.2754C130.791 11.2754 134.541 12.3594 137.08 14.5273C139.619 16.6953 140.889 19.7715 140.889 23.7559V29.498ZM125.684 30.9336C124.863 30.9336 124.453 31.3047 124.453 32.0469C124.453 32.75 124.932 33.1016 125.889 33.1016C126.553 33.1016 127.041 32.9453 127.354 32.6328C127.666 32.3008 127.822 31.7344 127.822 30.9336C127.822 30.9336 127.109 30.9336 125.684 30.9336Z" fill="#4B1378"/>
</svg>
